# xmcd CD database file
#
# Track frame offsets:
#	150
#	13573
#	28889
#	40502
#	52549
#	64714
#	77429
#	88189
#	101649
#	115021
#	126542
#	140103
#	158173
#	169067
#	181048
#	193675
#	210339
#
# Disc length: 2992 seconds
#
# Revision: 0
# Processed by: cddbd v1.5.2PL0 Copyright (c) Steve Scherf et al.
# Submitted via: CDex 1.51
#
DISCID=d70bae11
DTITLE=Frank Sinatra - Frank Sinatra 4 CD Set Vol. 3 - 1955/56
DYEAR=1955
DGENRE=Jazz
TTITLE0=(Love Is) A Tender Trap (Cahn - Van Heusen)
TTITLE1=I See Your Face Before Me (Schwartz - Dietz)
TTITLE2=What Is This Thing Calles Love? (Cole Porter)
TTITLE3=(How Little It Matters) How Little We Know (Springer - Leigh)
TTITLE4=It Never Entered My Mind (Rodgers - Hart)
TTITLE5=Deep In A Dream (Van Heusen - DeLange)
TTITLE6=Hey! Jealous Lover (Cahn  - Walker - Twomey)
TTITLE7=I'll Be Around (Wilder)
TTITLE8=Dancing On The Ceiling (Rodgers - Hart)
TTITLE9=Can I Steal A Little Love (Tuminello)
TTITLE10=In The Wee Small Hours Of The Morning (Mann - Hilliard)
TTITLE11=Night And Day (Cole Porter)
TTITLE12=I Guess I'll Have To Change My Plans (Schwartz - Dietz)
TTITLE13=Stars Fell On Alabama (Perkins - Parish)
TTITLE14=Can't We Be Friends? (Swift - James)
TTITLE15=I Get Along With You Very Well (Carmichael)
TTITLE16=I Got Plenty O' Nuttin' (Heyward - G. and I. Gershwin)
EXTD=YEAR: 1955
EXTT0=
EXTT1=
EXTT2=
EXTT3=
EXTT4=
EXTT5=
EXTT6=
EXTT7=
EXTT8=
EXTT9=
EXTT10=
EXTT11=
EXTT12=
EXTT13=
EXTT14=
EXTT15=
EXTT16=
PLAYORDER=
